<svg xmlns="http://www.w3.org/2000/svg" width="42.46" height="42.469" viewBox="0 0 42.46 42.469">
  <path id="stethoscope-light" d="M39.88.844a1.326,1.326,0,0,1-.78,1.709L35.517,3.9a1.318,1.318,0,0,0-.863,1.244V15.907a10.617,10.617,0,0,0,21.234,0V5.141A1.326,1.326,0,0,0,55.026,3.9L51.442,2.553A1.328,1.328,0,1,1,52.371.064l3.583,1.344a3.976,3.976,0,0,1,2.58,3.724V15.907a13.265,13.265,0,0,1-11.944,13.2v.066a10.617,10.617,0,0,0,21.234,0V21.049a5.309,5.309,0,1,1,2.654,0v8.129a13.271,13.271,0,0,1-26.543,0v-.066A13.265,13.265,0,0,1,32,15.907V5.141a3.976,3.976,0,0,1,2.58-3.724L38.171.064A1.326,1.326,0,0,1,39.88.844ZM69.16,18.561a2.654,2.654,0,1,0-2.654-2.654A2.654,2.654,0,0,0,69.16,18.561Z" transform="translate(-32 0.02)" fill="#444"/>
</svg>
