<svg xmlns="http://www.w3.org/2000/svg" width="61.787" height="49.433" viewBox="0 0 61.787 49.433">
  <path id="ranking-star-solid" d="M34.157,5.189,31.878.574a1.1,1.1,0,0,0-1.969,0L27.63,5.189l-5.049.724a1.124,1.124,0,0,0-.618,1.912L25.632,11.4l-.869,5.03A1.127,1.127,0,0,0,26.385,17.6l4.528-2.394,4.5,2.356a1.126,1.126,0,0,0,1.622-1.178l-.869-5.03,3.669-3.533a1.129,1.129,0,0,0-.618-1.912l-5.049-.724ZM24.715,24.68a3.086,3.086,0,0,0-3.089,3.089V46.305a3.086,3.086,0,0,0,3.089,3.089H37.072a3.086,3.086,0,0,0,3.089-3.089V27.77a3.086,3.086,0,0,0-3.089-3.089ZM3.089,30.859A3.086,3.086,0,0,0,0,33.948V46.305a3.086,3.086,0,0,0,3.089,3.089H15.447a3.086,3.086,0,0,0,3.089-3.089V33.948a3.086,3.086,0,0,0-3.089-3.089Zm40.162,9.268v6.179a3.086,3.086,0,0,0,3.089,3.089H58.7a3.086,3.086,0,0,0,3.089-3.089V40.127A3.086,3.086,0,0,0,58.7,37.038H46.34A3.086,3.086,0,0,0,43.251,40.127Z" transform="translate(0 0.038)" fill="#444"/>
</svg>
