<?xml version="1.0" encoding="utf-8"?>
<!-- Generator: Adobe Illustrator 24.3.0, SVG Export Plug-In . SVG Version: 6.00 Build 0)  -->
<svg version="1.1" id="Layer_1" xmlns="http://www.w3.org/2000/svg" xmlns:xlink="http://www.w3.org/1999/xlink" x="0px" y="0px"
	 viewBox="0 0 230 77" style="enable-background:new 0 0 230 77;" xml:space="preserve">
<style type="text/css">
	.st0{fill:#B8AF88;}
	.st1{fill:#1779D1;}
	.st2{fill:#B8AF88;stroke:#B9AF88;stroke-width:0.5;stroke-miterlimit:10;}
</style>
<g>
	<path class="st0" d="M59.8,39c0-0.2,0-0.4,0-0.6C59.8,22.7,47,10,31.3,10c-4,0-7.9,0.8-11.4,2.4L59.8,39z"/>
	<g>
		<path class="st0" d="M6.3,52.3C11.2,61.1,20.5,67,31.3,67c10.7,0,20-5.9,24.9-14.6L6.3,52.3z"/>
		<path class="st0" d="M58.2,47.7c0.4-1,0.7-2.1,0.9-3.2L5,27.4c-1.4,3.4-2.2,7.1-2.2,11.1c0,0.3,0,0.5,0,0.8L58.2,47.7z"/>
	</g>
</g>
<g>
	<path class="st1" d="M121.2,43.3c0,0.7-0.6,1.2-1.2,1.2c-0.7,0-1.2-0.6-1.2-1.2c0-0.7,0.6-1.2,1.2-1.2
		C120.6,42.1,121.2,42.6,121.2,43.3z"/>
	<g>
		<path class="st1" d="M86.5,10c1.7,0,3.4,0.3,5.2,0.8c1.8,0.5,3.3,1.5,4.8,2.8c1.4,1.3,2.6,3.1,3.4,5.3c0.9,2.2,1.3,5,1.3,8.4
			c0,3.1-0.5,5.8-1.4,7.9c-0.9,2.2-2.1,4-3.6,5.4C94.7,42,93,43,91,43.6c-1.9,0.6-4,1-6.1,1H74.3V10H86.5z M85.2,43.6
			c2,0,4-0.3,5.8-1c1.8-0.7,3.4-1.7,4.8-3c1.4-1.3,2.5-3,3.2-5.1c0.8-2.1,1.2-4.5,1.2-7.2c0-3.2-0.4-5.9-1.2-8
			c-0.8-2.1-1.9-3.8-3.2-5c-1.3-1.2-2.8-2.1-4.5-2.6c-1.7-0.5-3.4-0.7-5.1-0.7H75.3v32.7H85.2z"/>
		<path class="st1" d="M108.2,44.6V19.7h1v6.2h0.1c0.2-0.9,0.6-1.8,1.1-2.6c0.5-0.8,1.1-1.5,1.9-2.2c0.8-0.6,1.8-1.1,2.9-1.5
			c1.1-0.4,2.4-0.5,3.9-0.5v1c-1.7-0.1-3.2,0.1-4.4,0.7c-1.2,0.6-2.3,1.3-3.1,2.3c-0.8,1-1.4,2.1-1.8,3.4c-0.4,1.3-0.6,2.6-0.6,4
			v14.1H108.2z"/>
	</g>
	<path class="st1" d="M151.3,44.6h-21.2V10h1v33.6h20.2V44.6z"/>
	<path class="st1" d="M155.2,37c0.4,1.4,0.9,2.7,1.7,3.8c0.8,1.1,1.8,1.9,3,2.5c1.2,0.6,2.7,0.9,4.5,0.9c2.6,0,4.8-0.7,6.5-2.1
		c1.7-1.4,2.8-3.4,3.2-6.2h1c-0.4,2.9-1.5,5.2-3.4,6.8c-1.9,1.6-4.3,2.4-7.2,2.4c-1.9,0-3.6-0.3-5-0.9c-1.4-0.6-2.5-1.6-3.4-2.7
		c-0.9-1.2-1.5-2.6-1.9-4.2c-0.4-1.6-0.6-3.3-0.6-5.2c0-2.1,0.3-3.9,0.9-5.5c0.6-1.6,1.4-3,2.4-4.1c1-1.1,2.2-2,3.5-2.5
		c1.3-0.6,2.7-0.9,4.1-0.9c1.9,0,3.6,0.4,5,1.1c1.4,0.7,2.6,1.7,3.4,3c0.9,1.2,1.5,2.6,1.9,4.2c0.4,1.6,0.6,3.2,0.5,4.9h-20.8
		C154.6,34,154.8,35.6,155.2,37z M173.9,27c-0.4-1.4-1-2.6-1.9-3.6c-0.8-1-1.9-1.8-3.1-2.4c-1.2-0.6-2.7-0.9-4.3-0.9
		c-1.4,0-2.6,0.3-3.8,0.8c-1.2,0.5-2.2,1.3-3.1,2.3c-0.9,1-1.6,2.2-2.2,3.6c-0.5,1.4-0.9,3-1,4.7h19.9
		C174.5,29.8,174.3,28.4,173.9,27z"/>
	<path class="st1" d="M182.9,24.1c0.4-1,1-1.9,1.8-2.6c0.8-0.7,1.8-1.3,2.9-1.7c1.1-0.4,2.5-0.6,4-0.6c1.1,0,2.1,0.1,3.1,0.3
		c1,0.2,1.8,0.6,2.6,1.2c0.7,0.6,1.3,1.3,1.8,2.2c0.5,0.9,0.7,2,0.7,3.4v15.9c0,0.5,0.1,0.8,0.3,1.1c0.2,0.2,0.5,0.4,0.8,0.5
		c0.3,0.1,0.7,0.1,1,0.1c0.4,0,0.7,0,1-0.1v1h-1.5c-0.7,0-1.3-0.2-1.9-0.5c-0.5-0.3-0.8-1-0.8-1.9v-3.2h-0.1
		c-0.3,0.8-0.7,1.6-1.2,2.3c-0.6,0.7-1.3,1.4-2.1,2c-0.9,0.6-1.8,1-2.9,1.4c-1.1,0.3-2.3,0.5-3.6,0.5c-2.5,0-4.5-0.6-6.1-1.7
		c-1.5-1.1-2.3-2.8-2.3-5c0-1.6,0.2-2.8,0.8-3.7c0.5-0.9,1.2-1.7,2-2.2c0.8-0.5,1.7-0.9,2.8-1.1c1-0.2,2.1-0.3,3.1-0.4
		c1.7-0.1,3.2-0.2,4.4-0.3c1.2-0.1,2.2-0.2,3-0.5c0.8-0.2,1.4-0.6,1.7-1.1c0.4-0.5,0.6-1.2,0.6-2.2c0-0.7-0.1-1.5-0.2-2.3
		c-0.1-0.8-0.4-1.6-0.9-2.2c-0.5-0.7-1.2-1.2-2.2-1.7c-1-0.4-2.3-0.7-3.9-0.7c-2.6,0-4.7,0.6-6.1,1.9c-1.5,1.3-2.3,3.1-2.4,5.4h-1
		C182.2,26.2,182.4,25.1,182.9,24.1z M198.8,29.9c-0.3,0.5-0.8,0.8-1.5,1c-0.7,0.2-1.5,0.4-2.3,0.6c-0.9,0.1-1.8,0.2-2.8,0.2
		c-1,0-2,0.1-3,0.1c-1,0.1-1.9,0.2-2.8,0.4c-0.9,0.2-1.7,0.5-2.4,1c-0.7,0.5-1.3,1.1-1.7,1.9c-0.4,0.8-0.6,1.9-0.6,3.2
		c0,0.7,0.1,1.4,0.4,2.1c0.2,0.7,0.7,1.3,1.2,1.8c0.6,0.5,1.3,1,2.3,1.3c0.9,0.3,2.1,0.5,3.4,0.5c1.6,0,3.1-0.3,4.3-0.8
		c1.3-0.5,2.3-1.3,3.2-2.2c0.9-0.9,1.5-1.9,1.9-3.1c0.4-1.2,0.7-2.4,0.7-3.6L198.8,29.9L198.8,29.9z"/>
	<path class="st1" d="M209.3,10v15.9h0.1c0.2-1,0.6-1.9,1.1-2.7c0.5-0.8,1.1-1.5,1.9-2.1c0.8-0.6,1.6-1.1,2.6-1.4
		c1-0.3,2.1-0.5,3.3-0.5c1.3,0,2.5,0.2,3.6,0.6c1.1,0.4,2,1,2.8,1.7c0.8,0.8,1.4,1.7,1.8,2.8c0.4,1.1,0.7,2.4,0.7,3.9v16.5h-1V28.2
		c0-1.5-0.2-2.7-0.6-3.7c-0.4-1-1-1.9-1.7-2.5c-0.7-0.7-1.6-1.1-2.5-1.5c-1-0.3-2-0.5-3-0.5c-1.5,0-2.8,0.3-3.9,0.8
		c-1.1,0.6-2.1,1.3-2.8,2.3c-0.8,1-1.3,2.1-1.7,3.3c-0.4,1.3-0.6,2.6-0.6,4v14.1h-1V10H209.3z"/>
</g>
<path class="st2" d="M84.5,65.3c-0.3,0.5-0.6,1-1,1.3c-0.4,0.4-0.9,0.6-1.5,0.8c-0.6,0.2-1.2,0.3-1.8,0.3c-0.8,0-1.6-0.2-2.2-0.5
	c-0.6-0.3-1.2-0.7-1.6-1.3c-0.4-0.5-0.8-1.1-1-1.8c-0.2-0.7-0.3-1.5-0.3-2.3c0-0.8,0.1-1.7,0.3-2.4c0.2-0.8,0.6-1.4,1-2
	c0.4-0.6,1-1,1.7-1.4c0.7-0.3,1.5-0.5,2.4-0.5c0.5,0,1.1,0.1,1.6,0.2c0.5,0.2,0.9,0.4,1.3,0.7c0.4,0.3,0.7,0.7,1,1.2
	c0.3,0.5,0.4,1,0.5,1.6h-0.5c-0.1-0.6-0.3-1.1-0.5-1.5c-0.2-0.4-0.5-0.8-0.9-1c-0.3-0.3-0.7-0.5-1.2-0.6c-0.4-0.1-0.9-0.2-1.4-0.2
	c-0.9,0-1.7,0.2-2.3,0.5c-0.6,0.4-1.2,0.8-1.5,1.4c-0.4,0.6-0.7,1.2-0.8,1.9c-0.2,0.7-0.3,1.4-0.3,2.1c0,0.7,0.1,1.4,0.3,2
	c0.2,0.7,0.5,1.2,0.9,1.7c0.4,0.5,0.9,0.9,1.5,1.2c0.6,0.3,1.3,0.4,2,0.4c0.6,0,1.1-0.1,1.6-0.3s0.9-0.4,1.3-0.8
	c0.4-0.3,0.7-0.7,0.9-1.2c0.2-0.5,0.4-1,0.4-1.6H85C85,64.2,84.8,64.8,84.5,65.3z"/>
<path class="st2" d="M87.4,51.3v16.2h-0.5V51.3H87.4z"/>
<path class="st2" d="M93.2,55.9v2.9h0c0.1-0.5,0.3-0.9,0.5-1.2c0.2-0.4,0.5-0.7,0.9-1c0.4-0.3,0.8-0.5,1.2-0.7
	c0.5-0.2,1-0.2,1.6-0.2c0.6,0,1.2,0.1,1.7,0.3c0.5,0.2,0.9,0.4,1.3,0.8c0.4,0.4,0.7,0.8,0.9,1.3c0.2,0.5,0.3,1.1,0.3,1.8v7.7h-0.5
	v-7.7c0-0.7-0.1-1.3-0.3-1.7c-0.2-0.5-0.5-0.9-0.8-1.2c-0.3-0.3-0.7-0.5-1.2-0.7c-0.4-0.1-0.9-0.2-1.4-0.2c-0.7,0-1.3,0.1-1.8,0.4
	c-0.5,0.3-1,0.6-1.3,1.1c-0.4,0.4-0.6,1-0.8,1.6c-0.2,0.6-0.3,1.2-0.3,1.9v6.6h-0.5V55.9H93.2z"/>
<path class="st2" d="M115.8,65.3c-0.3,0.5-0.6,1-1,1.3c-0.4,0.4-0.9,0.6-1.5,0.8c-0.6,0.2-1.2,0.3-1.8,0.3c-0.8,0-1.6-0.2-2.2-0.5
	c-0.6-0.3-1.2-0.7-1.6-1.3c-0.4-0.5-0.8-1.1-1-1.8c-0.2-0.7-0.3-1.5-0.3-2.3c0-0.8,0.1-1.7,0.3-2.4c0.2-0.8,0.6-1.4,1-2
	c0.4-0.6,1-1,1.7-1.4c0.7-0.3,1.5-0.5,2.4-0.5c0.5,0,1.1,0.1,1.6,0.2c0.5,0.2,0.9,0.4,1.3,0.7c0.4,0.3,0.7,0.7,1,1.2
	c0.3,0.5,0.4,1,0.5,1.6h-0.5c-0.1-0.6-0.3-1.1-0.5-1.5c-0.2-0.4-0.5-0.8-0.9-1c-0.3-0.3-0.7-0.5-1.2-0.6c-0.4-0.1-0.9-0.2-1.4-0.2
	c-0.9,0-1.7,0.2-2.3,0.5c-0.6,0.4-1.2,0.8-1.5,1.4c-0.4,0.6-0.7,1.2-0.8,1.9c-0.2,0.7-0.3,1.4-0.3,2.1c0,0.7,0.1,1.4,0.3,2
	c0.2,0.7,0.5,1.2,0.9,1.7c0.4,0.5,0.9,0.9,1.5,1.2c0.6,0.3,1.3,0.4,2,0.4c0.6,0,1.1-0.1,1.6-0.3c0.5-0.2,0.9-0.4,1.3-0.8
	c0.4-0.3,0.7-0.7,0.9-1.2c0.2-0.5,0.4-1,0.4-1.6h0.5C116.3,64.2,116.1,64.8,115.8,65.3z"/>
<path class="st2" d="M125.6,57.8c-0.2-0.4-0.4-0.7-0.8-1c-0.3-0.3-0.7-0.5-1.2-0.6c-0.5-0.1-1-0.2-1.5-0.2c-0.8,0-1.5,0.1-1.9,0.3
	c-0.5,0.2-0.8,0.5-1,0.7c-0.2,0.3-0.4,0.6-0.4,0.8c-0.1,0.3-0.1,0.5-0.1,0.6c0,0.6,0.1,1,0.4,1.3c0.2,0.3,0.5,0.5,0.9,0.7
	c0.4,0.2,0.9,0.3,1.3,0.4c0.5,0.1,1,0.3,1.7,0.4c0.5,0.1,0.9,0.2,1.4,0.4c0.4,0.1,0.8,0.3,1.2,0.5c0.4,0.2,0.6,0.5,0.9,0.9
	c0.2,0.3,0.3,0.8,0.3,1.4c0,0.6-0.1,1.1-0.4,1.5c-0.2,0.4-0.6,0.7-1,1c-0.4,0.3-0.9,0.4-1.4,0.6c-0.5,0.1-1,0.2-1.5,0.2
	c-1.6,0-2.7-0.3-3.5-1c-0.8-0.7-1.2-1.8-1.2-3.2h0.5c0,1.3,0.4,2.3,1.1,2.9c0.7,0.6,1.8,0.9,3.2,0.9c0.4,0,0.9,0,1.3-0.1
	s0.9-0.3,1.2-0.5c0.4-0.2,0.7-0.5,0.9-0.9c0.2-0.3,0.4-0.8,0.4-1.3c0-0.5-0.1-0.9-0.4-1.2c-0.2-0.3-0.5-0.6-0.9-0.8
	c-0.4-0.2-0.8-0.4-1.3-0.5c-0.5-0.1-1-0.2-1.5-0.4c-0.6-0.1-1.1-0.3-1.5-0.4c-0.4-0.1-0.8-0.3-1.1-0.4c-0.5-0.2-0.8-0.5-1.1-0.9
	c-0.2-0.4-0.3-0.9-0.3-1.5c0-0.3,0.1-0.6,0.2-1c0.1-0.3,0.4-0.7,0.7-1c0.3-0.3,0.7-0.5,1.2-0.7c0.5-0.2,1.1-0.3,1.8-0.3
	c1.3,0,2.3,0.3,3.1,0.9c0.8,0.6,1.1,1.5,1.1,2.8h-0.5C125.8,58.7,125.7,58.2,125.6,57.8z"/>
<path class="st2" d="M146.1,67.5l-2-2.6c-0.5,0.8-1.1,1.5-1.8,2.1c-0.8,0.6-1.7,0.8-2.9,0.8c-0.6,0-1.1-0.1-1.7-0.3
	c-0.6-0.2-1.1-0.4-1.5-0.8c-0.4-0.3-0.8-0.8-1.1-1.2c-0.3-0.5-0.4-1.1-0.4-1.7c0-0.7,0.1-1.3,0.4-1.8c0.3-0.5,0.6-1,1-1.4
	c0.4-0.4,0.9-0.8,1.4-1.1c0.5-0.3,1-0.7,1.5-1c-0.2-0.3-0.5-0.6-0.7-1c-0.3-0.3-0.5-0.7-0.8-1c-0.2-0.4-0.5-0.7-0.6-1.1
	c-0.2-0.4-0.2-0.7-0.2-1.1c0-0.5,0.1-1,0.3-1.4c0.2-0.4,0.4-0.7,0.8-0.9c0.3-0.2,0.7-0.4,1.1-0.5c0.4-0.1,0.8-0.2,1.2-0.2
	c0.5,0,0.9,0.1,1.3,0.2c0.4,0.1,0.8,0.3,1.1,0.6c0.3,0.3,0.5,0.6,0.7,0.9c0.2,0.4,0.3,0.8,0.3,1.3c0,0.5-0.1,1-0.4,1.4
	c-0.2,0.4-0.5,0.8-0.9,1.1c-0.3,0.3-0.7,0.7-1.2,0.9c-0.4,0.3-0.8,0.6-1.2,0.8l4.3,5.4c0.2-0.3,0.3-0.7,0.4-1.2
	c0.1-0.5,0.2-1,0.1-1.6h0.5c0,0.7,0,1.3-0.2,1.8c-0.1,0.5-0.3,1-0.5,1.5l2.4,3H146.1z M137.9,59.9c-0.5,0.3-0.9,0.7-1.3,1.1
	c-0.4,0.4-0.7,0.8-1,1.3c-0.3,0.5-0.4,1-0.4,1.7c0,0.6,0.1,1.1,0.4,1.5c0.2,0.4,0.6,0.8,0.9,1.1c0.4,0.3,0.8,0.5,1.3,0.7
	c0.5,0.2,1,0.2,1.5,0.2c1.1,0,2-0.3,2.7-0.8c0.7-0.5,1.3-1.2,1.7-2.1l-4.4-5.6C138.9,59.3,138.4,59.6,137.9,59.9z M137.2,55.1
	c0.1,0.3,0.2,0.5,0.4,0.9c0.2,0.3,0.4,0.7,0.7,1.1c0.3,0.4,0.6,0.9,1.1,1.4c0.3-0.2,0.7-0.5,1.1-0.7c0.4-0.3,0.8-0.6,1.1-0.9
	c0.3-0.3,0.6-0.7,0.9-1.1c0.2-0.4,0.4-0.8,0.4-1.3c0-0.4-0.1-0.7-0.2-1.1c-0.2-0.3-0.4-0.6-0.6-0.8c-0.3-0.2-0.6-0.4-0.9-0.5
	c-0.3-0.1-0.7-0.2-1.1-0.2c-0.4,0-0.8,0.1-1.1,0.2c-0.3,0.1-0.7,0.3-0.9,0.5c-0.3,0.2-0.5,0.5-0.6,0.8c-0.2,0.3-0.2,0.7-0.2,1.1
	C137.1,54.6,137.1,54.8,137.2,55.1z"/>
<path class="st2" d="M161.5,57.8c-0.2-0.4-0.4-0.7-0.8-1c-0.3-0.3-0.7-0.5-1.2-0.6c-0.5-0.1-1-0.2-1.5-0.2c-0.8,0-1.5,0.1-1.9,0.3
	c-0.5,0.2-0.8,0.5-1,0.7c-0.2,0.3-0.4,0.6-0.4,0.8c-0.1,0.3-0.1,0.5-0.1,0.6c0,0.6,0.1,1,0.4,1.3c0.2,0.3,0.5,0.5,0.9,0.7
	c0.4,0.2,0.9,0.3,1.3,0.4c0.5,0.1,1,0.3,1.7,0.4c0.5,0.1,0.9,0.2,1.4,0.4c0.4,0.1,0.8,0.3,1.2,0.5c0.4,0.2,0.6,0.5,0.9,0.9
	c0.2,0.3,0.3,0.8,0.3,1.4c0,0.6-0.1,1.1-0.4,1.5c-0.2,0.4-0.6,0.7-1,1c-0.4,0.3-0.9,0.4-1.4,0.6c-0.5,0.1-1,0.2-1.5,0.2
	c-1.6,0-2.7-0.3-3.5-1c-0.8-0.7-1.2-1.8-1.2-3.2h0.5c0,1.3,0.4,2.3,1.1,2.9c0.7,0.6,1.8,0.9,3.2,0.9c0.4,0,0.9,0,1.3-0.1
	s0.9-0.3,1.2-0.5c0.4-0.2,0.7-0.5,0.9-0.9c0.2-0.3,0.4-0.8,0.4-1.3c0-0.5-0.1-0.9-0.4-1.2c-0.2-0.3-0.5-0.6-0.9-0.8
	c-0.4-0.2-0.8-0.4-1.3-0.5c-0.5-0.1-1-0.2-1.5-0.4c-0.6-0.1-1.1-0.3-1.5-0.4c-0.4-0.1-0.8-0.3-1.1-0.4c-0.5-0.2-0.8-0.5-1.1-0.9
	c-0.2-0.4-0.3-0.9-0.3-1.5c0-0.3,0.1-0.6,0.2-1c0.1-0.3,0.4-0.7,0.7-1c0.3-0.3,0.7-0.5,1.2-0.7c0.5-0.2,1.1-0.3,1.8-0.3
	c1.3,0,2.3,0.3,3.1,0.9c0.8,0.6,1.1,1.5,1.1,2.8h-0.5C161.8,58.7,161.7,58.2,161.5,57.8z"/>
<path class="st2" d="M165.1,67.5h-0.5V51.3h0.5v11.2l8.1-6.7h0.7l-5.4,4.4l5.7,7.2h-0.6l-5.5-6.9l-3,2.5V67.5z"/>
<path class="st2" d="M198.7,65.3c-0.3,0.5-0.6,1-1,1.3c-0.4,0.4-0.9,0.6-1.5,0.8c-0.6,0.2-1.2,0.3-1.8,0.3c-0.8,0-1.6-0.2-2.2-0.5
	c-0.6-0.3-1.2-0.7-1.6-1.3c-0.4-0.5-0.8-1.1-1-1.8c-0.2-0.7-0.3-1.5-0.3-2.3c0-0.8,0.1-1.7,0.3-2.4c0.2-0.8,0.6-1.4,1-2
	c0.4-0.6,1-1,1.7-1.4c0.7-0.3,1.5-0.5,2.4-0.5c0.5,0,1.1,0.1,1.6,0.2c0.5,0.2,0.9,0.4,1.3,0.7c0.4,0.3,0.7,0.7,1,1.2
	c0.3,0.5,0.4,1,0.5,1.6h-0.5c-0.1-0.6-0.3-1.1-0.5-1.5c-0.2-0.4-0.5-0.8-0.9-1c-0.3-0.3-0.7-0.5-1.2-0.6c-0.4-0.1-0.9-0.2-1.4-0.2
	c-0.9,0-1.7,0.2-2.3,0.5c-0.6,0.4-1.2,0.8-1.5,1.4c-0.4,0.6-0.7,1.2-0.8,1.9c-0.2,0.7-0.3,1.4-0.3,2.1c0,0.7,0.1,1.4,0.3,2
	c0.2,0.7,0.5,1.2,0.9,1.7c0.4,0.5,0.9,0.9,1.5,1.2c0.6,0.3,1.3,0.4,2,0.4c0.6,0,1.1-0.1,1.6-0.3c0.5-0.2,0.9-0.4,1.3-0.8
	c0.4-0.3,0.7-0.7,0.9-1.2c0.2-0.5,0.4-1,0.4-1.6h0.5C199.1,64.2,199,64.8,198.7,65.3z"/>
<path class="st2" d="M201.5,58c0.2-0.5,0.5-0.9,0.9-1.2c0.4-0.3,0.8-0.6,1.4-0.8c0.5-0.2,1.2-0.3,1.9-0.3c0.5,0,1,0.1,1.5,0.2
	c0.5,0.1,0.9,0.3,1.2,0.6c0.3,0.3,0.6,0.6,0.8,1c0.2,0.4,0.3,1,0.3,1.6v7.4c0,0.2,0,0.4,0.1,0.5c0.1,0.1,0.2,0.2,0.4,0.2
	c0.2,0,0.3,0.1,0.5,0c0.2,0,0.3,0,0.5,0v0.5h-0.7c-0.3,0-0.6-0.1-0.9-0.2c-0.2-0.2-0.4-0.5-0.4-0.9v-1.5h0c-0.1,0.4-0.3,0.7-0.6,1.1
	c-0.3,0.3-0.6,0.7-1,0.9c-0.4,0.3-0.9,0.5-1.4,0.6c-0.5,0.2-1.1,0.2-1.7,0.2c-1.2,0-2.1-0.3-2.8-0.8c-0.7-0.5-1.1-1.3-1.1-2.3
	c0-0.7,0.1-1.3,0.4-1.7c0.2-0.4,0.5-0.8,0.9-1c0.4-0.2,0.8-0.4,1.3-0.5c0.5-0.1,1-0.2,1.5-0.2c0.8,0,1.5-0.1,2.1-0.1
	c0.6,0,1-0.1,1.4-0.2c0.4-0.1,0.6-0.3,0.8-0.5c0.2-0.2,0.3-0.6,0.3-1c0-0.3,0-0.7-0.1-1.1c-0.1-0.4-0.2-0.7-0.4-1
	c-0.2-0.3-0.6-0.6-1-0.8c-0.5-0.2-1.1-0.3-1.8-0.3c-1.2,0-2.2,0.3-2.9,0.9c-0.7,0.6-1.1,1.4-1.1,2.5h-0.5
	C201.2,58.9,201.3,58.4,201.5,58z M208.9,60.7c-0.2,0.2-0.4,0.4-0.7,0.5c-0.3,0.1-0.7,0.2-1.1,0.3c-0.4,0.1-0.9,0.1-1.3,0.1
	c-0.5,0-0.9,0-1.4,0.1c-0.5,0-0.9,0.1-1.3,0.2c-0.4,0.1-0.8,0.2-1.1,0.5c-0.3,0.2-0.6,0.5-0.8,0.9c-0.2,0.4-0.3,0.9-0.3,1.5
	c0,0.3,0.1,0.7,0.2,1c0.1,0.3,0.3,0.6,0.6,0.9c0.3,0.2,0.6,0.5,1.1,0.6c0.4,0.2,1,0.2,1.6,0.2c0.8,0,1.4-0.1,2-0.4
	c0.6-0.3,1.1-0.6,1.5-1c0.4-0.4,0.7-0.9,0.9-1.4c0.2-0.5,0.3-1.1,0.3-1.7L208.9,60.7L208.9,60.7z"/>
<path class="st2" d="M212.1,67.5V55.9h0.5v2.9h0c0.1-0.4,0.3-0.9,0.5-1.2c0.2-0.4,0.5-0.7,0.9-1c0.4-0.3,0.8-0.5,1.3-0.7
	c0.5-0.2,1.1-0.2,1.8-0.2v0.5c-0.8,0-1.5,0.1-2.1,0.3c-0.6,0.3-1.1,0.6-1.4,1.1c-0.4,0.5-0.7,1-0.8,1.6c-0.2,0.6-0.3,1.2-0.3,1.9
	v6.6H212.1z"/>
<path class="st2" d="M217.6,64c0.2,0.7,0.4,1.3,0.8,1.8c0.4,0.5,0.8,0.9,1.4,1.2c0.6,0.3,1.3,0.4,2.1,0.4c1.2,0,2.2-0.3,3.1-1
	c0.8-0.6,1.3-1.6,1.5-2.9h0.5c-0.2,1.4-0.7,2.4-1.6,3.2c-0.9,0.7-2,1.1-3.4,1.1c-0.9,0-1.7-0.1-2.3-0.4c-0.6-0.3-1.2-0.7-1.6-1.3
	c-0.4-0.6-0.7-1.2-0.9-2c-0.2-0.7-0.3-1.6-0.3-2.4c0-1,0.1-1.8,0.4-2.6s0.7-1.4,1.1-1.9c0.5-0.5,1-0.9,1.6-1.2
	c0.6-0.3,1.3-0.4,1.9-0.4c0.9,0,1.7,0.2,2.3,0.5c0.7,0.3,1.2,0.8,1.6,1.4c0.4,0.6,0.7,1.2,0.9,2c0.2,0.7,0.3,1.5,0.2,2.3h-9.8
	C217.3,62.6,217.4,63.3,217.6,64z M226.3,59.3c-0.2-0.6-0.5-1.2-0.9-1.7c-0.4-0.5-0.9-0.9-1.4-1.1c-0.6-0.3-1.2-0.4-2-0.4
	c-0.6,0-1.2,0.1-1.8,0.4c-0.6,0.2-1,0.6-1.5,1.1c-0.4,0.5-0.8,1-1,1.7c-0.3,0.7-0.4,1.4-0.5,2.2h9.3C226.6,60.6,226.5,60,226.3,59.3
	z"/>
<rect x="89.8" y="55.9" class="st2" width="0.5" height="11.7"/>
<path class="st2" d="M90.6,52.6c0,0.3-0.3,0.6-0.6,0.6s-0.6-0.3-0.6-0.6c0-0.3,0.3-0.6,0.6-0.6S90.6,52.2,90.6,52.6z"/>
<rect x="104" y="55.9" class="st2" width="0.5" height="11.7"/>
<path class="st2" d="M104.8,52.6c0,0.3-0.3,0.6-0.6,0.6s-0.6-0.3-0.6-0.6c0-0.3,0.3-0.6,0.6-0.6S104.8,52.2,104.8,52.6z"/>
<path class="st2" d="M179.1,55.9v2.9h0c0.1-0.5,0.3-0.9,0.5-1.2c0.2-0.4,0.5-0.7,0.9-1c0.4-0.3,0.8-0.5,1.2-0.7
	c0.5-0.2,1-0.2,1.6-0.2c0.6,0,1.2,0.1,1.7,0.3c0.5,0.2,0.9,0.4,1.3,0.8c0.4,0.4,0.7,0.8,0.9,1.3c0.2,0.5,0.3,1.1,0.3,1.8v7.7h-0.5
	v-7.7c0-0.7-0.1-1.3-0.3-1.7c-0.2-0.5-0.5-0.9-0.8-1.2c-0.3-0.3-0.7-0.5-1.2-0.7c-0.4-0.1-0.9-0.2-1.4-0.2c-0.7,0-1.3,0.1-1.8,0.4
	s-1,0.6-1.3,1.1c-0.4,0.4-0.6,1-0.8,1.6c-0.2,0.6-0.3,1.2-0.3,1.9v6.6h-0.5V55.9H179.1z"/>
<rect x="175.8" y="55.9" class="st2" width="0.5" height="11.7"/>
<path class="st2" d="M176.6,52.6c0,0.3-0.3,0.6-0.6,0.6c-0.3,0-0.6-0.3-0.6-0.6c0-0.3,0.3-0.6,0.6-0.6
	C176.3,52,176.6,52.2,176.6,52.6z"/>
</svg>
