<svg xmlns="http://www.w3.org/2000/svg" width="33.069" height="44.079" viewBox="0 0 33.069 44.079">
  <path id="award-solid" d="M14.915.5a2.84,2.84,0,0,1,3.134,0L19.581,1.5a2.872,2.872,0,0,0,1.73.465l1.834-.112a2.843,2.843,0,0,1,2.712,1.567l.826,1.644a2.856,2.856,0,0,0,1.265,1.265l1.661.835A2.843,2.843,0,0,1,31.177,9.88l-.112,1.834a2.857,2.857,0,0,0,.465,1.73l1.016,1.532a2.84,2.84,0,0,1,0,3.134L31.53,19.651a2.872,2.872,0,0,0-.465,1.73l.112,1.834a2.843,2.843,0,0,1-1.567,2.712l-1.644.826A2.856,2.856,0,0,0,26.7,28.018l-.835,1.661a2.843,2.843,0,0,1-2.712,1.567l-1.834-.112a2.857,2.857,0,0,0-1.73.465l-1.532,1.016a2.84,2.84,0,0,1-3.134,0L13.382,31.6a2.872,2.872,0,0,0-1.73-.465l-1.834.112A2.843,2.843,0,0,1,7.107,29.68L6.28,28.036A2.856,2.856,0,0,0,5.015,26.77l-1.661-.835a2.843,2.843,0,0,1-1.567-2.712L1.9,21.39a2.857,2.857,0,0,0-.465-1.73L.426,18.118a2.84,2.84,0,0,1,0-3.134l1.007-1.532a2.872,2.872,0,0,0,.465-1.73L1.786,9.888A2.843,2.843,0,0,1,3.353,7.177L5,6.35A2.913,2.913,0,0,0,6.272,5.068L7.1,3.423A2.843,2.843,0,0,1,9.81,1.857l1.834.112a2.857,2.857,0,0,0,1.73-.465Zm8.454,16.055a6.887,6.887,0,1,0-6.887,6.887A6.887,6.887,0,0,0,23.369,16.552Zm-23.3,21.5,3.71-8.824a.067.067,0,0,1,.034.034l.826,1.644a5.614,5.614,0,0,0,5.337,3.082l1.834-.112a.082.082,0,0,1,.06.017L13.4,34.914a5.851,5.851,0,0,0,1.386.663l-3.237,7.688a1.375,1.375,0,0,1-2.419.215L6.358,39.235l-4.83.715a1.406,1.406,0,0,1-1.291-.517,1.371,1.371,0,0,1-.181-1.377Zm21.35,5.2-3.237-7.679a5.535,5.535,0,0,0,1.386-.663L21.1,33.9a.124.124,0,0,1,.06-.017l1.834.112a5.614,5.614,0,0,0,5.337-3.082l.826-1.644a.067.067,0,0,1,.034-.034l3.719,8.824a1.394,1.394,0,0,1-.181,1.377,1.36,1.36,0,0,1-1.291.517l-4.83-.715-2.772,4.235a1.375,1.375,0,0,1-2.419-.215Z" transform="translate(0.052 -0.025)" fill="#444"/>
</svg>
