<svg xmlns="http://www.w3.org/2000/svg" width="49.43" height="49.429" viewBox="0 0 49.43 49.429">
  <path id="badge-check-solid" d="M24.715,0a9.268,9.268,0,0,1,8.2,4.933A9.272,9.272,0,0,1,44.5,16.518a9.276,9.276,0,0,1,0,16.393A9.272,9.272,0,0,1,32.911,44.5a9.276,9.276,0,0,1-16.393,0A9.272,9.272,0,0,1,4.933,32.911a9.276,9.276,0,0,1,0-16.393A9.272,9.272,0,0,1,16.518,4.933,9.268,9.268,0,0,1,24.715,0ZM35.624,20.177A2.314,2.314,0,1,0,32.351,16.9L21.635,27.62,17.1,23.083a2.314,2.314,0,0,0-3.273,3.273L20,32.534a2.307,2.307,0,0,0,3.273,0Z" fill="#444"/>
</svg>
