<svg xmlns="http://www.w3.org/2000/svg" width="64" height="64" viewBox="0 0 64 64">
  <path id="Union_1" data-name="Union 1" d="M-2138,27.5A31.5,31.5,0,0,1-2106.5-4,31.5,31.5,0,0,1-2075,27.5,31.5,31.5,0,0,1-2106.5,59,31.5,31.5,0,0,1-2138,27.5Zm20.6-25.8a27.888,27.888,0,0,0-8.9,6,27.9,27.9,0,0,0-6,8.9,27.812,27.812,0,0,0-2.2,10.9,27.81,27.81,0,0,0,2.2,10.9,27.9,27.9,0,0,0,6,8.9,27.888,27.888,0,0,0,8.9,6,27.811,27.811,0,0,0,10.9,2.2,27.81,27.81,0,0,0,10.9-2.2,27.888,27.888,0,0,0,8.9-6,27.9,27.9,0,0,0,6-8.9,27.81,27.81,0,0,0,2.2-10.9,27.812,27.812,0,0,0-2.2-10.9,27.9,27.9,0,0,0-6-8.9,27.888,27.888,0,0,0-8.9-6,27.81,27.81,0,0,0-10.9-2.2A27.811,27.811,0,0,0-2117.4,1.7Zm6.676,42.428a59.7,59.7,0,0,0-8.536-11.48c-.729-.744-1.52-1.429-2.3-2.119a2.294,2.294,0,0,1-.6-3.171,5.3,5.3,0,0,1,2.442-2.314,2.034,2.034,0,0,1,2.711.4,34.608,34.608,0,0,1,5.881,7.286c.174.286.345.573.567.942,5.375-9.752,13.051-16.816,23.408-20.841a79.624,79.624,0,0,0-23.068,32.13C-2110.4,44.674-2110.56,44.4-2110.721,44.127Z" transform="translate(2138.5 4.5)" fill="#b8af88" stroke="rgba(0,0,0,0)" stroke-miterlimit="10" stroke-width="1"/>
</svg>
