<svg xmlns="http://www.w3.org/2000/svg" width="124.357" height="39.293" viewBox="0 0 124.357 39.293">
  <g id="layer1" transform="translate(-81.904 -141.098)">
    <g id="g4446" transform="translate(81.904 141.098)">
      <path id="path4098" d="M110.828,151.714c-2.422,0-3.987,1.77-3.987,4.382,0,2.629,1.547,4.349,3.867,4.349,2.4,0,3.969-1.736,3.969-4.349,0-2.663-1.529-4.382-3.85-4.382m-.035,7.51c-1.424,0-2.492-1.271-2.492-3.179,0-1.873.945-3.127,2.44-3.127,1.427,0,2.477,1.288,2.477,3.2,0,1.891-.878,3.11-2.426,3.11m50.457-10.43a.894.894,0,1,0,.893.9.888.888,0,0,0-.893-.9M102.736,159.1c-2.528,0-4.11-1.822-4.11-4.623,0-2.871,1.892-4.572,4.229-4.572a5.073,5.073,0,0,1,2.768.773l.67-1.064a5.213,5.213,0,0,0-3.523-1.066c-3.163,0-5.725,2.233-5.725,6.066,0,3.693,2.424,5.859,5.5,5.859a6.081,6.081,0,0,0,3.85-1.2l-.669-1.066a5.8,5.8,0,0,1-2.991.893m64.805-7.391c-2.423,0-3.987,1.769-3.987,4.382,0,2.629,1.546,4.349,3.867,4.349,2.406,0,3.968-1.736,3.968-4.349,0-2.663-1.527-4.382-3.849-4.382m-.035,7.51c-1.427,0-2.491-1.271-2.491-3.179,0-1.873.944-3.127,2.44-3.127,1.425,0,2.475,1.288,2.475,3.2,0,1.891-.878,3.11-2.425,3.11m9.317-7.51a4.8,4.8,0,0,0-2.6.843v-.619h-1.3v8.317h1.459v-6.58a4.485,4.485,0,0,1,2.184-.724,1.7,1.7,0,0,1,1.168.413c.429.43.448,1.118.448,2.165v4.726h1.459v-4.828c0-1.34-.034-2.2-.824-2.991a2.665,2.665,0,0,0-1.992-.722m-52.077,0a5.312,5.312,0,0,0-2.886.963,2.377,2.377,0,0,0-2.046-.963,4.948,4.948,0,0,0-2.543.843v-.619h-1.307v8.317h1.461v-6.616a4.622,4.622,0,0,1,2.131-.688,1.49,1.49,0,0,1,1.082.379c.43.447.414,1.2.414,2.319v4.606H122.5V155.6a7.765,7.765,0,0,0-.14-1.943,4.661,4.661,0,0,1,2.2-.7,1.428,1.428,0,0,1,1.135.431,3.33,3.33,0,0,1,.414,2.01v4.863h1.46v-4.828c0-1.34-.035-2.2-.827-2.991a2.666,2.666,0,0,0-1.993-.722m17.854,8.541h1.46v-8.318H142.6Zm.722-11.461a.894.894,0,1,0,.892.9.89.89,0,0,0-.892-.9m-5.381,2.92a5.324,5.324,0,0,0-2.887.963,2.367,2.367,0,0,0-2.043-.963,4.953,4.953,0,0,0-2.545.843v-.619H129.16v8.317h1.461v-6.616a4.634,4.634,0,0,1,2.131-.688,1.49,1.49,0,0,1,1.084.379c.43.447.413,1.2.413,2.319v4.606h1.444V155.6a7.767,7.767,0,0,0-.14-1.943,4.665,4.665,0,0,1,2.2-.7,1.433,1.433,0,0,1,1.135.431,3.334,3.334,0,0,1,.411,2.01v4.863h1.461v-4.828c0-1.34-.035-2.2-.825-2.991a2.665,2.665,0,0,0-1.995-.722m9.5,2.269c0-.619.516-1.118,1.529-1.118a4.068,4.068,0,0,1,1.977.568l.549-.98a4.473,4.473,0,0,0-2.628-.739c-1.7,0-2.905.946-2.905,2.354,0,2.647,4.107,2.269,4.107,3.971,0,.739-.7,1.238-1.6,1.238a4.261,4.261,0,0,1-2.217-.636l-.55,1.014a5.083,5.083,0,0,0,2.853.824c1.635,0,3.044-.927,3.044-2.543,0-2.647-4.16-2.354-4.16-3.953m13.082,6.272h1.46v-8.318h-1.46Zm-6-6.272c0-.619.514-1.118,1.53-1.118a4.088,4.088,0,0,1,1.977.568l.548-.98a4.469,4.469,0,0,0-2.628-.739c-1.7,0-2.9.946-2.9,2.354,0,2.647,4.106,2.269,4.106,3.971,0,.739-.7,1.238-1.6,1.238a4.255,4.255,0,0,1-2.218-.636l-.55,1.014a5.091,5.091,0,0,0,2.855.824c1.63,0,3.039-.927,3.039-2.543,0-2.647-4.158-2.354-4.158-3.953" transform="translate(-57.576 -129.63)" fill="#444"/>
      <path id="path4102" d="M102.694,154.787a6.332,6.332,0,0,0,4.177-1.409l-1-1.613a5.7,5.7,0,0,1-2.888.934c-2.155,0-3.53-1.544-3.53-3.9a3.569,3.569,0,0,1,3.65-3.854,4.381,4.381,0,0,1,2.7.866l1.037-1.577A5.284,5.284,0,0,0,103,142.922a5.684,5.684,0,0,0-5.96,6.027,5.468,5.468,0,0,0,5.654,5.838m4.834-2.768a2.534,2.534,0,0,0,2.7,2.683,4.066,4.066,0,0,0,2.359-.781v.6h1.987v-5.009c0-1.087.018-1.952-.68-2.648a3.875,3.875,0,0,0-2.732-.933,5.385,5.385,0,0,0-3.174.9l.762,1.461a5.01,5.01,0,0,1,2.225-.612,1.667,1.667,0,0,1,1.187.339c.238.239.255.476.255.985h-.238c-1.017,0-4.65.051-4.65,3.021m4.888.442a2.8,2.8,0,0,1-1.6.51c-.559,0-1.289-.238-1.289-1.1,0-1.053,1.051-1.307,2.53-1.307h.356Z" transform="translate(-57.586 -138.551)" fill="#444"/>
      <path id="path4106" d="M106.534,149.46a2.736,2.736,0,0,1,2.342-1.205,3.933,3.933,0,0,1,.51.051l.526-1.733a1.972,1.972,0,0,0-.953-.219,3.692,3.692,0,0,0-2.766,1.289V146.59h-1.951v8.352h2.292Zm7.211-3.106c-2.375,0-4.006,1.9-4.006,4.464,0,2.428,1.444,4.361,4.159,4.361a5.768,5.768,0,0,0,3.173-.915l-.746-1.46a5.006,5.006,0,0,1-2.225.594,1.946,1.946,0,0,1-2.138-1.884h5.5c0-.118.035-.356.035-.712,0-2.718-1.31-4.448-3.753-4.448m-1.8,3.513a1.914,1.914,0,0,1,1.851-1.815,1.639,1.639,0,0,1,1.579,1.815Zm22.375,5.313a4.325,4.325,0,0,0,2.359-.865v.629h1.951v-8.352h-2.29V152.7a2.975,2.975,0,0,1-1.546.526,1.2,1.2,0,0,1-.9-.305c-.306-.306-.357-.848-.357-1.935v-4.4h-2.292v4.5a4.264,4.264,0,0,0,.9,3.276,2.976,2.976,0,0,0,2.173.813m10.279-.831v.6h1.986v-5.009c0-1.087.018-1.952-.677-2.648a3.878,3.878,0,0,0-2.733-.933,5.393,5.393,0,0,0-3.175.9l.763,1.461a5,5,0,0,1,2.224-.612,1.665,1.665,0,0,1,1.188.339c.239.239.256.476.256.985h-.238c-1.017,0-4.65.051-4.65,3.021a2.534,2.534,0,0,0,2.7,2.683,4.067,4.067,0,0,0,2.359-.781m-3.055-2.053c0-1.053,1.052-1.307,2.529-1.307h.356v1.9a2.8,2.8,0,0,1-1.6.51c-.56,0-1.289-.238-1.289-1.1M150,142.651h-2.292v12.292H150Zm2.34,2.9a1.307,1.307,0,1,0-1.309-1.306,1.3,1.3,0,0,0,1.309,1.306m1.153,1.037H151.2v8.352h2.292Zm5.927,6.67c-1,0-1.055-.763-1.055-1.425v-3.345h2.378v-1.9h-2.378v-2.326h-2.289v2.326H154.63v1.9h1.444v3.26c0,1.171,0,1.968.713,2.681a3.041,3.041,0,0,0,2.154.747,3.987,3.987,0,0,0,2.1-.542l-.575-1.578a3,3,0,0,1-1.051.2m3.628,3.769a3.213,3.213,0,0,1-1.289-.287l-.679,1.628a4.238,4.238,0,0,0,2.088.526,3.263,3.263,0,0,0,2.444-.865,8.3,8.3,0,0,0,1.613-3l3.31-8.436h-2.258l-2.088,5.855-2.242-5.855h-2.427l3.5,8.352a5.108,5.108,0,0,1-.831,1.663,1.515,1.515,0,0,1-1.138.424M130.238,149.2c0-3.4-2.181-5.86-5.537-5.86-3.288,0-5.535,2.368-5.535,5.86,0,3.554,2.2,5.989,5.442,6.044h0l.14,0a4.2,4.2,0,0,1,3.359,1.421c.236-.155,1.945-1.626,1.945-1.626a3.165,3.165,0,0,0-1.961-.892,6.051,6.051,0,0,0,2.15-4.95m-5.486,4.02c-1.789,0-3.151-1.48-3.151-3.865,0-2.368,1.192-4.038,3.016-4.038,1.906,0,3.185,1.617,3.185,3.866,0,1.823-.7,4.037-3.05,4.037" transform="translate(-46.176 -138.979)" fill="#444"/>
      <path id="path4110" d="M109.484,173.144a17.567,17.567,0,1,0-10.141,3.225h.5c4.673.079,7.885,1.631,9.936,4.153.689-.454,5.669-4.741,5.669-4.741s-1.783-2.153-5.963-2.637m-10.529-1.271a13.255,13.255,0,0,0,9.694-8.279.032.032,0,0,0-.033.005,10.446,10.446,0,1,1,0-9.6c.011.01.023.013.031,0a13.258,13.258,0,0,0-9.694-8.279c.146-.005.29-.01.437-.01a13.086,13.086,0,0,1,0,26.171c-.147,0-.291-.008-.437-.013" transform="translate(-81.772 -141.23)" fill="#444"/>
    </g>
  </g>
</svg>
